<svg width="32" height="32" viewBox="0 0 32 32" fill="none" xmlns="http://www.w3.org/2000/svg">
<path fill-rule="evenodd" clip-rule="evenodd" d="M3.07313 15.8602C3.07313 8.81368 8.79305 3.08094 15.8229 3.08094C22.852 3.08094 28.5719 8.81403 28.5719 15.8602C28.5719 22.9063 22.852 28.6395 15.8229 28.6395C8.79305 28.6395 3.07313 22.9068 3.07313 15.8602ZM0 15.8598C0 24.6051 7.09809 31.7204 15.8229 31.7204C24.5473 31.7204 31.6451 24.6051 31.6451 15.8598C31.6451 7.11461 24.5473 0 15.8229 0C7.09809 0 0 7.11461 0 15.8598ZM8.14844 11.9325L16.1223 19.2652L23.37 8.10377L20.7937 6.42285L15.5256 14.5351L10.226 9.66238L8.14844 11.9325Z" fill="#50C878"/>
</svg>
