<svg width="16" height="16" fill="none" xmlns="http://www.w3.org/2000/svg">
    <path fill-rule="evenodd" clip-rule="evenodd"
          d="M2 0a2 2 0 0 0-2 2v6a8 8 0 0 0 8 8h6a2 2 0 0 0 2-2V8a8 8 0 0 0-8-8H2Zm3.897 12a.597.597 0 0 1-.596-.597V4.597c0-.324.261-.597.596-.597h3.98c.335 0 .597.273.597.597v.129a.597.597 0 0 1-.596.597H7.137a.2.2 0 0 0-.2.2v1.504c0 .11.09.2.2.2H8.44c.882 0 1.584.192 2.092.589.515.4.769.968.769 1.686 0 .766-.27 1.38-.814 1.831-.538.449-1.267.667-2.171.667h-2.42Zm1.24-1.253h.954c.5 0 .868-.108 1.12-.31.248-.2.377-.48.377-.853 0-.382-.123-.651-.354-.829-.235-.18-.602-.28-1.12-.28h-.977a.2.2 0 0 0-.2.2v1.872c0 .11.09.2.2.2Z"
          fill="#fff"/>
</svg>
